<?xml version="1.0" standalone="no"?>
<!DOCTYPE svg PUBLIC "-//W3C//DTD SVG 20010904//EN"
 "http://www.w3.org/TR/2001/REC-SVG-20010904/DTD/svg10.dtd">
<svg version="1.0" xmlns="http://www.w3.org/2000/svg"
 width="500.000000pt" height="500.000000pt" viewBox="0 0 500.000000 500.000000"
 preserveAspectRatio="xMidYMid meet">

<g transform="translate(0.000000,500.000000) scale(0.100000,-0.100000)"
fill="currentColor" stroke="none">
<path d="M579 3396 c-68 -14 -148 -64 -182 -114 -58 -83 -57 -78 -57 -516 l0
-405 24 -53 c28 -62 56 -95 111 -131 65 -43 128 -57 258 -57 l117 0 0 -203 c0
-219 2 -227 52 -227 22 0 48 19 111 78 45 42 127 118 182 167 55 50 102 92
105 95 3 3 27 25 53 50 l48 45 1522 5 1522 5 51 27 c55 29 112 88 141 147 16
33 18 74 21 446 3 395 2 411 -18 460 -38 94 -130 163 -245 184 -88 16 -3740
14 -3816 -3z m3867 -123 c52 -28 90 -72 104 -121 6 -22 10 -179 10 -393 0
-379 -1 -390 -50 -452 -12 -15 -41 -38 -63 -50 l-42 -22 -1521 -5 c-1626 -5
-1527 -2 -1574 -50 -8 -9 -31 -28 -50 -44 -19 -15 -64 -56 -100 -90 -82 -76
-200 -180 -201 -175 0 2 -1 77 -2 166 -2 137 -5 165 -19 179 -14 15 -41 17
-185 18 -158 1 -171 2 -210 25 -46 27 -74 60 -91 110 -19 53 -17 758 2 802 25
60 77 105 139 119 17 5 883 7 1922 7 l1890 -2 41 -22z"/>
<path d="M1194 3045 c-41 -18 -81 -66 -94 -113 -5 -20 -10 -105 -10 -188 0
-140 2 -153 25 -200 36 -72 79 -94 182 -94 90 0 129 18 170 79 22 32 23 43 23
220 0 174 -2 189 -23 226 -31 57 -91 85 -177 84 -36 0 -79 -7 -96 -14z m147
-98 c33 -25 39 -55 39 -192 0 -175 -13 -205 -90 -205 -15 0 -38 9 -51 19 -23
19 -24 23 -24 184 0 148 2 167 19 186 22 24 81 28 107 8z"/>
<path d="M1674 3046 c-17 -8 -41 -24 -53 -37 -44 -47 -51 -81 -51 -259 0 -155
2 -170 23 -211 34 -65 83 -89 177 -88 89 0 134 18 167 68 35 52 43 95 43 238
0 172 -19 230 -88 274 -40 25 -55 29 -116 29 -39 -1 -85 -7 -102 -14z m156
-111 c21 -23 24 -36 28 -139 5 -138 -2 -196 -29 -225 -28 -30 -83 -28 -114 4
-24 23 -25 28 -25 178 0 141 2 157 21 181 28 36 86 36 119 1z"/>
<path d="M645 3037 c-3 -7 -4 -140 -3 -297 l3 -285 52 -3 52 -3 3 103 3 103
39 0 39 0 31 -90 c17 -49 35 -96 39 -102 5 -8 29 -13 58 -13 60 0 60 0 18 131
l-32 98 36 40 c28 31 37 51 42 94 13 106 -16 182 -85 218 -29 16 -57 19 -163
19 -94 0 -129 -3 -132 -13z m222 -93 c46 -13 55 -122 12 -165 -14 -14 -33 -19
-74 -19 l-55 0 0 95 0 95 48 0 c26 0 57 -3 69 -6z"/>
<path d="M2060 2750 l0 -300 50 0 50 0 0 185 c0 102 3 185 8 185 4 0 18 -35
31 -78 13 -42 33 -105 44 -139 l21 -63 40 0 41 0 47 143 47 142 0 -175 c1 -96
5 -181 10 -188 5 -9 24 -12 52 -10 l44 3 3 298 2 298 -62 -3 -62 -3 -38 -95
c-22 -52 -48 -124 -60 -158 -11 -35 -23 -60 -27 -55 -4 4 -20 46 -36 93 -16
47 -41 114 -55 150 l-26 65 -62 3 -62 3 0 -301z"/>
<path d="M2645 3037 c-3 -7 -4 -140 -3 -297 l3 -285 50 0 50 0 5 184 5 185 46
-140 46 -139 43 0 42 0 46 140 47 140 5 -185 5 -185 47 -3 c42 -3 48 -1 53 20
3 13 4 147 3 298 l-3 275 -56 3 c-37 2 -59 -1 -66 -10 -11 -14 -84 -198 -105
-265 -12 -40 -28 -58 -28 -31 0 10 -49 153 -70 203 -4 11 -14 36 -21 55 -7 19
-18 38 -23 42 -19 13 -116 9 -121 -5z"/>
<path d="M3346 2988 c-10 -35 -26 -92 -37 -128 -61 -211 -98 -349 -101 -375
l-3 -30 55 0 54 0 20 68 19 68 81 -3 81 -3 15 -55 c21 -75 25 -80 76 -80 54 0
62 14 44 73 -7 23 -17 56 -21 72 -5 17 -18 62 -29 100 -11 39 -37 133 -59 210
l-39 140 -69 3 -69 3 -18 -63z m114 -183 c12 -44 24 -88 27 -97 5 -16 -2 -18
-54 -18 l-60 0 14 53 c8 28 19 70 24 91 10 41 19 60 24 54 2 -2 13 -39 25 -83z"/>
<path d="M3624 3036 c-3 -8 -4 -29 -2 -48 l3 -33 67 -3 68 -3 2 -247 3 -247
55 0 55 0 3 248 2 247 65 0 65 0 0 50 0 50 -190 0 c-155 0 -192 -3 -196 -14z"/>
<path d="M4065 3038 c-3 -7 -4 -141 -3 -298 l3 -285 155 0 155 0 3 48 3 47
-100 0 -101 0 0 80 0 79 83 3 82 3 3 48 3 47 -85 0 -86 0 0 70 0 69 98 3 97 3
0 45 0 45 -153 3 c-117 2 -154 0 -157 -10z"/>
</g>
</svg>
